<svg width="122" height="96" viewBox="0 0 122 96" fill="none" xmlns="http://www.w3.org/2000/svg">
<path d="M51.3686 0C19.2629 0 0 25.5998 0 38.401C0 51.2022 6.42012 60.8024 19.2629 60.8024C32.1057 60.8024 38.5283 64.0008 38.5283 73.6011C38.5283 86.3997 48.1585 96 61.0013 96C102.74 96 122 73.6011 122 51.2022C121.997 12.8012 89.8867 0 51.3686 0ZM43.3421 12.8012C44.3975 12.8025 45.4423 13.0104 46.4168 13.4131C47.3914 13.8158 48.2766 14.4053 49.0219 15.1481C49.7672 15.8908 50.3581 16.7722 50.7607 17.7419C51.1633 18.7116 51.3699 19.7507 51.3686 20.7997C51.3686 25.2209 47.7747 28.8008 43.3421 28.8008C38.9096 28.8008 35.3157 25.2183 35.3157 20.7997C35.3144 19.7507 35.5209 18.7116 35.9236 17.7419C36.3262 16.7722 36.9171 15.8908 37.6624 15.1481C38.4077 14.4053 39.2929 13.8158 40.2674 13.4131C41.242 13.0104 42.2868 12.8025 43.3421 12.8012ZM69.0226 12.8012C70.078 12.8025 71.1228 13.0104 72.0973 13.4131C73.0718 13.8158 73.957 14.4053 74.7024 15.1481C75.4477 15.8908 76.0385 16.7722 76.4412 17.7419C76.8438 18.7116 77.0504 19.7507 77.049 20.7997C77.0507 21.849 76.8444 22.8883 76.4419 23.8583C76.0394 24.8283 75.4486 25.71 74.7033 26.453C73.9579 27.196 73.0726 27.7857 72.0979 28.1886C71.1232 28.5914 70.0782 28.7994 69.0226 28.8008C67.9672 28.7991 66.9225 28.5908 65.9481 28.1878C64.9737 27.7849 64.0887 27.195 63.3436 26.4521C62.5985 25.7091 62.0079 24.8275 61.6056 23.8577C61.2033 22.8879 60.9971 21.8488 60.9987 20.7997C60.996 18.6815 61.8398 16.6489 63.3445 15.149C64.8492 13.649 66.8916 12.8045 69.0226 12.8012ZM94.7082 25.5998C95.764 25.6008 96.8092 25.8086 97.7842 26.2113C98.7592 26.614 99.6448 27.2037 100.39 27.9467C101.136 28.6898 101.727 29.5716 102.13 30.5417C102.532 31.5119 102.739 32.5514 102.737 33.6009C102.739 34.6502 102.532 35.6896 102.13 36.6597C101.727 37.6297 101.136 38.5113 100.39 39.2541C99.6446 39.997 98.759 40.5864 97.784 40.9889C96.8091 41.3913 95.7638 41.5987 94.7082 41.5994C93.6528 41.5984 92.608 41.3907 91.6334 40.9881C90.6589 40.5855 89.7737 39.9959 89.0286 39.2531C88.2834 38.5103 87.6928 37.6287 87.2905 36.6589C86.8883 35.689 86.6823 34.6499 86.6843 33.6009C86.6823 32.5517 86.8883 31.5125 87.2905 30.5425C87.6927 29.5725 88.2832 28.6908 89.0284 27.9478C89.7736 27.2047 90.6587 26.6149 91.6333 26.2121C92.6078 25.8092 93.6527 25.6012 94.7082 25.5998ZM20.8692 32.0017C21.9243 32.0027 22.9689 32.2103 23.9433 32.6128C24.9177 33.0152 25.8027 33.6045 26.5479 34.3471C27.293 35.0897 27.8837 35.9709 28.2861 36.9405C28.6885 37.91 28.8947 38.9489 28.8931 39.9977C28.8931 44.4189 25.2992 47.9987 20.8692 47.9987C16.4392 47.9987 12.8428 44.4163 12.8428 39.9977C12.8408 37.8795 13.6852 35.8472 15.1903 34.3477C16.6955 32.8482 18.7382 32.0044 20.8692 32.0017ZM60.9987 64.0008C66.3183 64.0008 70.6289 68.2957 70.6289 73.6036C70.6289 78.904 66.3183 83.2013 60.9987 83.2013C55.6791 83.2013 51.3686 78.904 51.3686 73.6036C51.3662 72.3445 51.6135 71.0972 52.0963 69.933C52.579 68.7689 53.2878 67.7107 54.1821 66.819C55.0764 65.9272 56.1387 65.2193 57.3083 64.7358C58.478 64.2522 59.732 64.0025 60.9987 64.0008Z" fill="white"/>
</svg>
