<svg width="66" height="66" viewBox="0 0 66 66" fill="none" xmlns="http://www.w3.org/2000/svg">
<path d="M44.7724 29.477C44.9645 29.6686 45.1169 29.8962 45.2209 30.1468C45.3248 30.3974 45.3784 30.666 45.3784 30.9373C45.3784 31.2086 45.3248 31.4772 45.2209 31.7278C45.1169 31.9783 44.9645 32.2059 44.7724 32.3975L32.3974 44.7725C32.2058 44.9646 31.9782 45.117 31.7277 45.221C31.4771 45.3249 31.2085 45.3785 30.9372 45.3785C30.6659 45.3785 30.3973 45.3249 30.1467 45.221C29.8961 45.117 29.6685 44.9646 29.4769 44.7725L23.2894 38.585C23.0977 38.3933 22.9455 38.1656 22.8418 37.9151C22.738 37.6645 22.6846 37.396 22.6846 37.1248C22.6846 36.8536 22.738 36.585 22.8418 36.3345C22.9455 36.0839 23.0977 35.8563 23.2894 35.6645C23.6767 35.2772 24.202 35.0597 24.7497 35.0597C25.0209 35.0597 25.2894 35.1131 25.54 35.2169C25.7905 35.3207 26.0182 35.4728 26.2099 35.6645L30.9372 40.3959L41.8519 29.477C42.0435 29.285 42.2711 29.1326 42.5217 29.0286C42.7723 28.9246 43.0409 28.8711 43.3122 28.8711C43.5835 28.8711 43.8521 28.9246 44.1027 29.0286C44.3532 29.1326 44.5808 29.285 44.7724 29.477Z" fill="#DC5866"/>
<path d="M14.4375 0C14.9845 0 15.5091 0.217299 15.8959 0.604092C16.2827 0.990886 16.5 1.51549 16.5 2.0625V4.125H49.5V2.0625C49.5 1.51549 49.7173 0.990886 50.1041 0.604092C50.4909 0.217299 51.0155 0 51.5625 0C52.1095 0 52.6341 0.217299 53.0209 0.604092C53.4077 0.990886 53.625 1.51549 53.625 2.0625V4.125H57.75C59.938 4.125 62.0365 4.99419 63.5836 6.54137C65.1308 8.08854 66 10.187 66 12.375V57.75C66 59.938 65.1308 62.0365 63.5836 63.5836C62.0365 65.1308 59.938 66 57.75 66H8.25C6.06196 66 3.96354 65.1308 2.41637 63.5836C0.869194 62.0365 0 59.938 0 57.75V12.375C0 10.187 0.869194 8.08854 2.41637 6.54137C3.96354 4.99419 6.06196 4.125 8.25 4.125H12.375V2.0625C12.375 1.51549 12.5923 0.990886 12.9791 0.604092C13.3659 0.217299 13.8905 0 14.4375 0V0ZM4.125 16.5V57.75C4.125 58.844 4.5596 59.8932 5.33318 60.6668C6.10677 61.4404 7.15598 61.875 8.25 61.875H57.75C58.844 61.875 59.8932 61.4404 60.6668 60.6668C61.4404 59.8932 61.875 58.844 61.875 57.75V16.5H4.125Z" fill="#DC5866"/>
</svg>
