<svg width="104" height="104" viewBox="0 0 104 104" fill="none" xmlns="http://www.w3.org/2000/svg">
<path d="M0 52C0 38.2087 5.47856 24.9823 15.2304 15.2304C24.9823 5.47856 38.2087 0 52 0C65.7913 0 79.0177 5.47856 88.7696 15.2304C98.5214 24.9823 104 38.2087 104 52C104 65.7913 98.5214 79.0177 88.7696 88.7696C79.0177 98.5214 65.7913 104 52 104C38.2087 104 24.9823 98.5214 15.2304 88.7696C5.47856 79.0177 0 65.7913 0 52ZM48.75 7.0005C44.395 8.3265 40.0725 12.3305 36.4845 19.058C35.3024 21.2946 34.2856 23.6148 33.4425 26H48.75V7.0005ZM26.585 26C27.6684 22.5473 29.0607 19.1993 30.745 15.9965C31.8689 13.8714 33.1668 11.8429 34.6255 9.932C26.572 13.2719 19.643 18.8475 14.6575 26H26.585ZM22.802 48.75C22.997 43.0495 23.699 37.583 24.83 32.5H10.881C8.45727 37.6028 7.01099 43.1146 6.617 48.75H22.802ZM31.5055 32.5C30.227 37.8287 29.491 43.2731 29.3085 48.75H48.75V32.5H31.5055ZM55.25 32.5V48.75H74.685C74.5049 43.2733 73.771 37.8289 72.4945 32.5H55.25ZM29.315 55.25C29.4953 60.7267 30.2292 66.1711 31.5055 71.5H48.75V55.25H29.315ZM55.25 55.25V71.5H72.4945C73.71 66.5275 74.4835 61.048 74.6915 55.25H55.25ZM33.4425 78C34.3395 80.509 35.36 82.836 36.4845 84.942C40.0725 91.6695 44.4015 95.667 48.75 96.9995V78H33.4425ZM34.6255 94.068C33.1667 92.1571 31.8688 90.1287 30.745 88.0035C29.0607 84.8007 27.6684 81.4527 26.585 78H14.6575C19.6428 85.1527 26.5718 90.7284 34.6255 94.068ZM24.83 71.5C23.6546 66.1574 22.9757 60.7176 22.802 55.25H6.617C7.02 61.035 8.5085 66.5145 10.881 71.5H24.83ZM69.3745 94.068C77.4282 90.7284 84.3572 85.1527 89.3425 78H77.415C76.3315 81.4527 74.9392 84.8007 73.255 88.0035C72.1314 90.1288 70.8335 92.1573 69.3745 94.068ZM55.25 78V96.9995C59.605 95.6735 63.9275 91.6695 67.5155 84.942C68.64 82.836 69.6605 80.509 70.5575 78H55.25ZM79.17 71.5H93.119C95.4915 66.5145 96.98 61.035 97.383 55.25H81.198C81.0244 60.7176 80.3455 66.1574 79.17 71.5ZM97.383 48.75C96.9889 43.1146 95.5426 37.6029 93.119 32.5H79.17C80.301 37.583 81.003 43.0495 81.198 48.75H97.383ZM73.255 15.9965C74.8605 19.0125 76.258 22.3665 77.415 26H89.3425C84.3572 18.8473 77.4282 13.2716 69.3745 9.932C70.7915 11.778 72.0915 13.819 73.255 15.9965ZM70.5575 26C69.7144 23.6148 68.6977 21.2946 67.5155 19.058C63.9275 12.3305 59.605 8.333 55.25 7.0005V26H70.5575Z" fill="white"/>
</svg>
