<svg width="220" height="192" viewBox="0 0 220 192" fill="none" xmlns="http://www.w3.org/2000/svg">
<path d="M219.326 93.2457L166.846 2.45622C165.946 0.89431 164.282 0.142822 162.481 0.142822H57.5185C55.7173 0.142822 54.054 0.89431 53.1534 2.45622L0.673534 93.3506C-0.224511 94.9125 -0.224511 96.7816 0.673534 98.3435L53.1534 189.337C54.054 190.9 55.7173 191.857 57.5185 191.857H162.481C164.282 191.857 165.945 190.873 166.846 189.311L219.326 98.3026C220.225 96.7407 220.225 94.8076 219.326 93.2457Z" fill="#DC5866"/>
<path d="M122.891 50.3984C120.915 50.3984 119.312 52.0012 119.312 53.9766C119.312 55.952 120.915 57.5547 122.891 57.5547C124.866 57.5547 126.469 55.952 126.469 53.9766C126.469 52.0012 124.866 50.3984 122.891 50.3984Z" fill="white" stroke="white" stroke-width="2"/>
<path d="M97.1094 50.3984C95.134 50.3984 93.5312 52.0012 93.5312 53.9766C93.5312 55.952 95.134 57.5547 97.1094 57.5547C99.0848 57.5547 100.688 55.952 100.688 53.9766C100.688 52.0012 99.0848 50.3984 97.1094 50.3984Z" fill="white" stroke="white" stroke-width="2"/>
<mask id="path-4-outside-1" maskUnits="userSpaceOnUse" x="48.7031" y="28" width="123" height="136" fill="black">
<rect fill="white" x="48.7031" y="28" width="123" height="136"/>
<path d="M165.977 107.056C168.19 103.734 169.297 99.5906 169.297 96C169.297 90.587 166.892 85.5578 162.766 82.1475C163.679 79.9654 164.141 77.6958 164.141 75.375C164.141 68.1936 159.95 61.5039 153.719 58.38C154.664 50.5389 149.555 43.3516 141.983 41.5183C139.019 34.6674 132.423 30 125.469 30C118.995 30 113.189 33.7759 110 39.2854C106.811 33.7759 101.005 30 94.5312 30C87.5762 30 80.9801 34.6674 78.0171 41.5185C70.4 43.3635 65.3386 50.5866 66.2814 58.38C60.0506 61.5037 55.8594 68.1936 55.8594 75.375C55.8594 77.6958 56.3209 79.9654 57.234 82.1475C53.1077 85.5581 50.7031 90.587 50.7031 96C50.7031 99.6094 51.8195 103.748 54.023 107.055C51.8697 110.095 50.7031 113.697 50.7031 117.398C50.7031 122.198 52.6491 126.77 56.0911 130.165C54.3215 140.862 62.8525 151.688 73.9062 151.688C73.9862 151.688 74.0648 151.686 74.1419 151.684C77.8067 158.006 84.6093 162 91.9531 162C99.6071 162 106.446 157.406 110 150.787C113.554 157.406 120.393 162 128.047 162C135.391 162 142.193 158.006 145.858 151.684C145.935 151.686 146.014 151.688 146.094 151.688C155.876 151.688 164.141 143.069 164.141 132.867C164.141 131.999 164.064 131.105 163.909 130.165C167.351 126.77 169.297 122.198 169.297 117.398C169.297 113.697 168.13 110.095 165.977 107.056ZM107.422 69.0279C105.904 68.1475 104.143 67.6406 102.266 67.6406C100.842 67.6406 99.6875 68.7949 99.6875 70.2188C99.6875 71.6426 100.842 72.7969 102.266 72.7969C105.109 72.7969 107.422 75.11 107.422 77.9531V126.981C103.64 122.691 98.1089 119.977 91.9531 119.977C90.5292 119.977 89.375 121.131 89.375 122.555C89.375 123.979 90.5292 125.133 91.9531 125.133C100.483 125.133 107.422 132.072 107.422 140.602C107.422 149.406 100.338 156.844 91.9531 156.844C85.9842 156.844 80.4895 153.314 77.9542 147.851C77.4868 146.844 76.4282 146.251 75.3245 146.375C75.1422 146.396 74.961 146.42 74.7797 146.445C67.4424 147.448 59.1795 139.14 61.4163 129.845C61.646 128.89 61.3134 127.889 60.5588 127.261C57.5723 124.775 55.8594 121.181 55.8594 117.398C55.8594 115.06 56.5207 112.771 57.7512 110.764C60.8434 113.299 64.6897 114.82 68.75 114.82C70.1739 114.82 71.3281 113.666 71.3281 112.242C71.3281 110.818 70.1739 109.664 68.75 109.664C61.7532 109.664 55.8594 103.278 55.8594 96C55.8594 91.585 58.1098 87.5234 61.8798 85.1353C63.0413 84.3995 63.421 82.8817 62.7427 81.6857C61.5967 79.6647 61.0156 77.5414 61.0156 75.375C61.0156 68.4166 66.688 61.7109 73.9062 61.7109C80.7733 61.7109 86.7969 68.0962 86.7969 75.375C86.7969 76.7989 87.9511 77.9531 89.375 77.9531C90.7989 77.9531 91.9531 76.7989 91.9531 75.375C91.9531 65.1734 83.6887 56.5547 73.9062 56.5547C73.0431 56.5547 72.1846 56.6246 71.3346 56.7568C71.3333 56.689 71.3281 56.623 71.3281 56.5547C71.3281 50.8011 75.9989 46.2422 81.6406 46.2422C84.3946 46.2422 86.9851 47.3149 88.9347 49.2625C89.9419 50.2687 91.5741 50.2677 92.5806 49.2607C93.5869 48.2531 93.5861 46.6209 92.5788 45.6147C90.2268 43.2652 87.2519 41.7668 84.028 41.2703C86.3016 37.8953 90.0824 35.1562 94.5312 35.1562C101.398 35.1562 107.422 41.5412 107.422 48.8203V69.0279ZM151.25 114.82C155.311 114.82 159.157 113.298 162.249 110.765C163.479 112.772 164.141 115.06 164.141 117.398C164.141 121.181 162.428 124.775 159.441 127.261C158.687 127.889 158.354 128.891 158.584 129.845C158.857 130.98 158.984 131.941 158.984 132.867C158.984 140.869 151.746 147.337 145.221 146.445C145.039 146.42 144.858 146.396 144.676 146.375C143.57 146.25 142.513 146.844 142.046 147.851C139.511 153.314 134.015 156.844 128.047 156.844C119.662 156.844 112.578 149.406 112.578 140.602C112.578 132.072 119.517 125.133 128.047 125.133C129.471 125.133 130.625 123.979 130.625 122.555C130.625 121.131 129.471 119.977 128.047 119.977C121.891 119.977 116.36 122.691 112.578 126.981V77.9531C112.578 75.11 114.891 72.7969 117.734 72.7969C119.158 72.7969 120.312 71.6426 120.312 70.2188C120.312 68.7949 119.158 67.6406 117.734 67.6406C115.857 67.6406 114.096 68.1475 112.578 69.0279V48.8203C112.578 41.5412 118.602 35.1562 125.469 35.1562C129.918 35.1562 133.698 37.8953 135.972 41.27C132.748 41.7666 129.773 43.265 127.421 45.6144C126.414 46.6207 126.413 48.2529 127.419 49.2604C128.425 50.2679 130.058 50.2687 131.065 49.2625C133.015 47.3149 135.605 46.2422 138.359 46.2422C144.029 46.2422 148.672 50.8279 148.672 56.5547C148.672 56.6227 148.667 56.689 148.665 56.7568C147.815 56.6246 146.957 56.5547 146.094 56.5547C136.311 56.5547 128.047 65.1734 128.047 75.375C128.047 76.7989 129.201 77.9531 130.625 77.9531C132.049 77.9531 133.203 76.7989 133.203 75.375C133.203 68.0962 139.227 61.7109 146.094 61.7109C153.308 61.7109 158.984 68.4133 158.984 75.375C158.984 77.5414 158.403 79.6647 157.257 81.6857C156.579 82.8817 156.959 84.3995 158.12 85.1353C161.89 87.5234 164.141 91.585 164.141 96C164.141 103.304 158.226 109.664 151.25 109.664C149.826 109.664 148.672 110.818 148.672 112.242C148.672 113.666 149.826 114.82 151.25 114.82Z"/>
</mask>
<path d="M165.977 107.056C168.19 103.734 169.297 99.5906 169.297 96C169.297 90.587 166.892 85.5578 162.766 82.1475C163.679 79.9654 164.141 77.6958 164.141 75.375C164.141 68.1936 159.95 61.5039 153.719 58.38C154.664 50.5389 149.555 43.3516 141.983 41.5183C139.019 34.6674 132.423 30 125.469 30C118.995 30 113.189 33.7759 110 39.2854C106.811 33.7759 101.005 30 94.5312 30C87.5762 30 80.9801 34.6674 78.0171 41.5185C70.4 43.3635 65.3386 50.5866 66.2814 58.38C60.0506 61.5037 55.8594 68.1936 55.8594 75.375C55.8594 77.6958 56.3209 79.9654 57.234 82.1475C53.1077 85.5581 50.7031 90.587 50.7031 96C50.7031 99.6094 51.8195 103.748 54.023 107.055C51.8697 110.095 50.7031 113.697 50.7031 117.398C50.7031 122.198 52.6491 126.77 56.0911 130.165C54.3215 140.862 62.8525 151.688 73.9062 151.688C73.9862 151.688 74.0648 151.686 74.1419 151.684C77.8067 158.006 84.6093 162 91.9531 162C99.6071 162 106.446 157.406 110 150.787C113.554 157.406 120.393 162 128.047 162C135.391 162 142.193 158.006 145.858 151.684C145.935 151.686 146.014 151.688 146.094 151.688C155.876 151.688 164.141 143.069 164.141 132.867C164.141 131.999 164.064 131.105 163.909 130.165C167.351 126.77 169.297 122.198 169.297 117.398C169.297 113.697 168.13 110.095 165.977 107.056ZM107.422 69.0279C105.904 68.1475 104.143 67.6406 102.266 67.6406C100.842 67.6406 99.6875 68.7949 99.6875 70.2188C99.6875 71.6426 100.842 72.7969 102.266 72.7969C105.109 72.7969 107.422 75.11 107.422 77.9531V126.981C103.64 122.691 98.1089 119.977 91.9531 119.977C90.5292 119.977 89.375 121.131 89.375 122.555C89.375 123.979 90.5292 125.133 91.9531 125.133C100.483 125.133 107.422 132.072 107.422 140.602C107.422 149.406 100.338 156.844 91.9531 156.844C85.9842 156.844 80.4895 153.314 77.9542 147.851C77.4868 146.844 76.4282 146.251 75.3245 146.375C75.1422 146.396 74.961 146.42 74.7797 146.445C67.4424 147.448 59.1795 139.14 61.4163 129.845C61.646 128.89 61.3134 127.889 60.5588 127.261C57.5723 124.775 55.8594 121.181 55.8594 117.398C55.8594 115.06 56.5207 112.771 57.7512 110.764C60.8434 113.299 64.6897 114.82 68.75 114.82C70.1739 114.82 71.3281 113.666 71.3281 112.242C71.3281 110.818 70.1739 109.664 68.75 109.664C61.7532 109.664 55.8594 103.278 55.8594 96C55.8594 91.585 58.1098 87.5234 61.8798 85.1353C63.0413 84.3995 63.421 82.8817 62.7427 81.6857C61.5967 79.6647 61.0156 77.5414 61.0156 75.375C61.0156 68.4166 66.688 61.7109 73.9062 61.7109C80.7733 61.7109 86.7969 68.0962 86.7969 75.375C86.7969 76.7989 87.9511 77.9531 89.375 77.9531C90.7989 77.9531 91.9531 76.7989 91.9531 75.375C91.9531 65.1734 83.6887 56.5547 73.9062 56.5547C73.0431 56.5547 72.1846 56.6246 71.3346 56.7568C71.3333 56.689 71.3281 56.623 71.3281 56.5547C71.3281 50.8011 75.9989 46.2422 81.6406 46.2422C84.3946 46.2422 86.9851 47.3149 88.9347 49.2625C89.9419 50.2687 91.5741 50.2677 92.5806 49.2607C93.5869 48.2531 93.5861 46.6209 92.5788 45.6147C90.2268 43.2652 87.2519 41.7668 84.028 41.2703C86.3016 37.8953 90.0824 35.1562 94.5312 35.1562C101.398 35.1562 107.422 41.5412 107.422 48.8203V69.0279ZM151.25 114.82C155.311 114.82 159.157 113.298 162.249 110.765C163.479 112.772 164.141 115.06 164.141 117.398C164.141 121.181 162.428 124.775 159.441 127.261C158.687 127.889 158.354 128.891 158.584 129.845C158.857 130.98 158.984 131.941 158.984 132.867C158.984 140.869 151.746 147.337 145.221 146.445C145.039 146.42 144.858 146.396 144.676 146.375C143.57 146.25 142.513 146.844 142.046 147.851C139.511 153.314 134.015 156.844 128.047 156.844C119.662 156.844 112.578 149.406 112.578 140.602C112.578 132.072 119.517 125.133 128.047 125.133C129.471 125.133 130.625 123.979 130.625 122.555C130.625 121.131 129.471 119.977 128.047 119.977C121.891 119.977 116.36 122.691 112.578 126.981V77.9531C112.578 75.11 114.891 72.7969 117.734 72.7969C119.158 72.7969 120.312 71.6426 120.312 70.2188C120.312 68.7949 119.158 67.6406 117.734 67.6406C115.857 67.6406 114.096 68.1475 112.578 69.0279V48.8203C112.578 41.5412 118.602 35.1562 125.469 35.1562C129.918 35.1562 133.698 37.8953 135.972 41.27C132.748 41.7666 129.773 43.265 127.421 45.6144C126.414 46.6207 126.413 48.2529 127.419 49.2604C128.425 50.2679 130.058 50.2687 131.065 49.2625C133.015 47.3149 135.605 46.2422 138.359 46.2422C144.029 46.2422 148.672 50.8279 148.672 56.5547C148.672 56.6227 148.667 56.689 148.665 56.7568C147.815 56.6246 146.957 56.5547 146.094 56.5547C136.311 56.5547 128.047 65.1734 128.047 75.375C128.047 76.7989 129.201 77.9531 130.625 77.9531C132.049 77.9531 133.203 76.7989 133.203 75.375C133.203 68.0962 139.227 61.7109 146.094 61.7109C153.308 61.7109 158.984 68.4133 158.984 75.375C158.984 77.5414 158.403 79.6647 157.257 81.6857C156.579 82.8817 156.959 84.3995 158.12 85.1353C161.89 87.5234 164.141 91.585 164.141 96C164.141 103.304 158.226 109.664 151.25 109.664C149.826 109.664 148.672 110.818 148.672 112.242C148.672 113.666 149.826 114.82 151.25 114.82Z" fill="white"/>
<path d="M165.977 107.056C168.19 103.734 169.297 99.5906 169.297 96C169.297 90.587 166.892 85.5578 162.766 82.1475C163.679 79.9654 164.141 77.6958 164.141 75.375C164.141 68.1936 159.95 61.5039 153.719 58.38C154.664 50.5389 149.555 43.3516 141.983 41.5183C139.019 34.6674 132.423 30 125.469 30C118.995 30 113.189 33.7759 110 39.2854C106.811 33.7759 101.005 30 94.5312 30C87.5762 30 80.9801 34.6674 78.0171 41.5185C70.4 43.3635 65.3386 50.5866 66.2814 58.38C60.0506 61.5037 55.8594 68.1936 55.8594 75.375C55.8594 77.6958 56.3209 79.9654 57.234 82.1475C53.1077 85.5581 50.7031 90.587 50.7031 96C50.7031 99.6094 51.8195 103.748 54.023 107.055C51.8697 110.095 50.7031 113.697 50.7031 117.398C50.7031 122.198 52.6491 126.77 56.0911 130.165C54.3215 140.862 62.8525 151.688 73.9062 151.688C73.9862 151.688 74.0648 151.686 74.1419 151.684C77.8067 158.006 84.6093 162 91.9531 162C99.6071 162 106.446 157.406 110 150.787C113.554 157.406 120.393 162 128.047 162C135.391 162 142.193 158.006 145.858 151.684C145.935 151.686 146.014 151.688 146.094 151.688C155.876 151.688 164.141 143.069 164.141 132.867C164.141 131.999 164.064 131.105 163.909 130.165C167.351 126.77 169.297 122.198 169.297 117.398C169.297 113.697 168.13 110.095 165.977 107.056ZM107.422 69.0279C105.904 68.1475 104.143 67.6406 102.266 67.6406C100.842 67.6406 99.6875 68.7949 99.6875 70.2188C99.6875 71.6426 100.842 72.7969 102.266 72.7969C105.109 72.7969 107.422 75.11 107.422 77.9531V126.981C103.64 122.691 98.1089 119.977 91.9531 119.977C90.5292 119.977 89.375 121.131 89.375 122.555C89.375 123.979 90.5292 125.133 91.9531 125.133C100.483 125.133 107.422 132.072 107.422 140.602C107.422 149.406 100.338 156.844 91.9531 156.844C85.9842 156.844 80.4895 153.314 77.9542 147.851C77.4868 146.844 76.4282 146.251 75.3245 146.375C75.1422 146.396 74.961 146.42 74.7797 146.445C67.4424 147.448 59.1795 139.14 61.4163 129.845C61.646 128.89 61.3134 127.889 60.5588 127.261C57.5723 124.775 55.8594 121.181 55.8594 117.398C55.8594 115.06 56.5207 112.771 57.7512 110.764C60.8434 113.299 64.6897 114.82 68.75 114.82C70.1739 114.82 71.3281 113.666 71.3281 112.242C71.3281 110.818 70.1739 109.664 68.75 109.664C61.7532 109.664 55.8594 103.278 55.8594 96C55.8594 91.585 58.1098 87.5234 61.8798 85.1353C63.0413 84.3995 63.421 82.8817 62.7427 81.6857C61.5967 79.6647 61.0156 77.5414 61.0156 75.375C61.0156 68.4166 66.688 61.7109 73.9062 61.7109C80.7733 61.7109 86.7969 68.0962 86.7969 75.375C86.7969 76.7989 87.9511 77.9531 89.375 77.9531C90.7989 77.9531 91.9531 76.7989 91.9531 75.375C91.9531 65.1734 83.6887 56.5547 73.9062 56.5547C73.0431 56.5547 72.1846 56.6246 71.3346 56.7568C71.3333 56.689 71.3281 56.623 71.3281 56.5547C71.3281 50.8011 75.9989 46.2422 81.6406 46.2422C84.3946 46.2422 86.9851 47.3149 88.9347 49.2625C89.9419 50.2687 91.5741 50.2677 92.5806 49.2607C93.5869 48.2531 93.5861 46.6209 92.5788 45.6147C90.2268 43.2652 87.2519 41.7668 84.028 41.2703C86.3016 37.8953 90.0824 35.1562 94.5312 35.1562C101.398 35.1562 107.422 41.5412 107.422 48.8203V69.0279ZM151.25 114.82C155.311 114.82 159.157 113.298 162.249 110.765C163.479 112.772 164.141 115.06 164.141 117.398C164.141 121.181 162.428 124.775 159.441 127.261C158.687 127.889 158.354 128.891 158.584 129.845C158.857 130.98 158.984 131.941 158.984 132.867C158.984 140.869 151.746 147.337 145.221 146.445C145.039 146.42 144.858 146.396 144.676 146.375C143.57 146.25 142.513 146.844 142.046 147.851C139.511 153.314 134.015 156.844 128.047 156.844C119.662 156.844 112.578 149.406 112.578 140.602C112.578 132.072 119.517 125.133 128.047 125.133C129.471 125.133 130.625 123.979 130.625 122.555C130.625 121.131 129.471 119.977 128.047 119.977C121.891 119.977 116.36 122.691 112.578 126.981V77.9531C112.578 75.11 114.891 72.7969 117.734 72.7969C119.158 72.7969 120.312 71.6426 120.312 70.2188C120.312 68.7949 119.158 67.6406 117.734 67.6406C115.857 67.6406 114.096 68.1475 112.578 69.0279V48.8203C112.578 41.5412 118.602 35.1562 125.469 35.1562C129.918 35.1562 133.698 37.8953 135.972 41.27C132.748 41.7666 129.773 43.265 127.421 45.6144C126.414 46.6207 126.413 48.2529 127.419 49.2604C128.425 50.2679 130.058 50.2687 131.065 49.2625C133.015 47.3149 135.605 46.2422 138.359 46.2422C144.029 46.2422 148.672 50.8279 148.672 56.5547C148.672 56.6227 148.667 56.689 148.665 56.7568C147.815 56.6246 146.957 56.5547 146.094 56.5547C136.311 56.5547 128.047 65.1734 128.047 75.375C128.047 76.7989 129.201 77.9531 130.625 77.9531C132.049 77.9531 133.203 76.7989 133.203 75.375C133.203 68.0962 139.227 61.7109 146.094 61.7109C153.308 61.7109 158.984 68.4133 158.984 75.375C158.984 77.5414 158.403 79.6647 157.257 81.6857C156.579 82.8817 156.959 84.3995 158.12 85.1353C161.89 87.5234 164.141 91.585 164.141 96C164.141 103.304 158.226 109.664 151.25 109.664C149.826 109.664 148.672 110.818 148.672 112.242C148.672 113.666 149.826 114.82 151.25 114.82Z" stroke="white" stroke-width="4" mask="url(#path-4-outside-1)"/>
<path d="M97.302 84.2375L97.302 84.2376C89.6787 91.0567 77.4844 85.6036 77.4844 75.375C77.4844 73.3988 75.8824 71.7969 73.9062 71.7969C71.9301 71.7969 70.3281 73.3988 70.3281 75.375C70.3281 84.3921 76.6248 91.9586 85.0501 93.9225C83.9294 96.0926 81.6642 97.5781 79.0625 97.5781C77.0863 97.5781 75.4844 99.1801 75.4844 101.156C75.4844 103.132 77.0863 104.734 79.0625 104.734C85.5839 104.734 91.0627 100.219 92.5514 94.1534C96.0737 93.5591 99.3753 91.9846 102.073 89.5712C103.546 88.2537 103.672 85.9916 102.354 84.5188C101.037 83.046 98.775 82.9202 97.302 84.2375Z" fill="white" stroke="white" stroke-width="2"/>
<path d="M73.9062 129.289C71.9301 129.289 70.3281 130.891 70.3281 132.867C70.3281 134.843 71.9301 136.445 73.9062 136.445C80.1669 136.445 85.7969 142.327 85.7969 149.109C85.7969 151.086 87.3988 152.688 89.375 152.688C91.3512 152.688 92.9531 151.086 92.9531 149.109C92.9531 138.395 84.2801 129.289 73.9062 129.289Z" fill="white" stroke="white" stroke-width="2"/>
<path d="M73.4745 120.929L73.4744 120.929C72.5002 122.648 73.1037 124.832 74.8228 125.807L74.8228 125.807C76.5419 126.781 78.7253 126.178 79.7 124.458L79.7001 124.458C82.6077 119.329 88.122 115.82 94.5312 115.82C96.5073 115.82 98.1093 114.218 98.1093 112.242C98.1093 110.266 96.5073 108.664 94.5312 108.664C85.4177 108.664 77.5932 113.664 73.4745 120.929Z" fill="white" stroke="white" stroke-width="2"/>
<path d="M134.95 93.9225C136.071 96.0926 138.336 97.5781 140.938 97.5781C142.913 97.5781 144.516 99.18 144.516 101.156C144.516 103.132 142.913 104.734 140.938 104.734C134.416 104.734 128.937 100.219 127.449 94.1534C123.927 93.5591 120.625 91.9846 117.927 89.5712C116.454 88.2539 116.328 85.9919 117.646 84.5189L134.95 93.9225ZM134.95 93.9225C143.375 91.9586 149.672 84.3921 149.672 75.375C149.672 73.3988 148.07 71.7969 146.094 71.7969C144.118 71.7969 142.516 73.3988 142.516 75.375C142.516 81.9306 137.181 87.2656 130.625 87.2656C127.696 87.2656 124.882 86.1905 122.698 84.2377C121.226 82.9202 118.963 83.0457 117.646 84.5187L134.95 93.9225Z" fill="white" stroke="white" stroke-width="2"/>
<path d="M146.094 129.289C135.72 129.289 127.047 138.395 127.047 149.109C127.047 151.086 128.649 152.688 130.625 152.688C132.601 152.688 134.203 151.086 134.203 149.109C134.203 142.327 139.833 136.445 146.094 136.445C148.07 136.445 149.672 134.843 149.672 132.867C149.672 130.891 148.07 129.289 146.094 129.289Z" fill="white" stroke="white" stroke-width="2"/>
<path d="M146.526 120.93L146.525 120.929C142.417 113.682 134.603 108.664 125.469 108.664C123.493 108.664 121.891 110.266 121.891 112.242C121.891 114.218 123.493 115.82 125.469 115.82C131.873 115.82 137.392 119.328 140.299 124.458L140.299 124.458C141.275 126.18 143.46 126.78 145.177 125.807C146.896 124.832 147.499 122.649 146.526 120.93Z" fill="white" stroke="white" stroke-width="2"/>
</svg>
