<svg width="148" height="128" viewBox="0 0 148 128" fill="none" xmlns="http://www.w3.org/2000/svg">
<path d="M146.567 62.2934L111.599 1.79866C110.999 0.757932 109.891 0.257202 108.691 0.257202H38.752C37.5518 0.257202 36.4435 0.757932 35.8434 1.79866L0.875058 62.3633C0.276673 63.404 0.276673 64.6494 0.875058 65.6901L35.8434 126.321C36.4435 127.362 37.5518 128 38.752 128H108.69C109.89 128 110.999 127.344 111.599 126.304L146.567 65.6629C147.166 64.6222 147.166 63.3341 146.567 62.2934Z" fill="white"/>
<path d="M82.3106 33.4098C80.8101 33.4098 79.5928 34.6271 79.5928 36.1276C79.5928 37.6282 80.8101 38.8455 82.3106 38.8455C83.8112 38.8455 85.0285 37.6282 85.0285 36.1276C85.0285 34.6271 83.8112 33.4098 82.3106 33.4098Z" fill="#DC5866" stroke="#DC5866" stroke-width="2"/>
<path d="M65.1321 33.4098C63.6316 33.4098 62.4142 34.6271 62.4142 36.1276C62.4142 37.6282 63.6316 38.8455 65.1321 38.8455C66.6326 38.8455 67.85 37.6282 67.85 36.1276C67.85 34.6271 66.6326 33.4098 65.1321 33.4098Z" fill="#DC5866" stroke="#DC5866" stroke-width="2"/>
<mask id="path-4-outside-1" maskUnits="userSpaceOnUse" x="32.2108" y="18.1516" width="84" height="92" fill="black">
<rect fill="white" x="32.2108" y="18.1516" width="84" height="92"/>
<path d="M111.02 71.4952C112.494 69.2822 113.232 66.5211 113.232 64.1287C113.232 60.5219 111.63 57.1708 108.88 54.8985C109.489 53.4445 109.796 51.9322 109.796 50.3858C109.796 45.6007 107.004 41.1433 102.852 39.0617C103.482 33.8371 100.077 29.048 95.0322 27.8265C93.0575 23.2616 88.6624 20.1516 84.0285 20.1516C79.715 20.1516 75.8462 22.6676 73.7214 26.3386C71.5964 22.6676 67.7276 20.1516 63.4143 20.1516C58.78 20.1516 54.3849 23.2616 52.4106 27.8266C47.3352 29.0559 43.9627 33.8688 44.5909 39.0617C40.4392 41.1431 37.6465 45.6007 37.6465 50.3858C37.6465 51.9322 37.954 53.4445 38.5624 54.8985C35.813 57.171 34.2108 60.5219 34.2108 64.1287C34.2108 66.5336 34.9546 69.2911 36.4228 71.495C34.9881 73.5203 34.2108 75.9207 34.2108 78.3868C34.2108 81.5848 35.5074 84.6312 37.8009 86.8933C36.6218 94.021 42.3061 101.234 49.6714 101.234C49.7247 101.234 49.7771 101.233 49.8284 101.232C52.2704 105.444 56.8031 108.106 61.6964 108.106C66.7964 108.106 71.3535 105.044 73.7214 100.634C76.0893 105.044 80.6464 108.106 85.7464 108.106C90.6397 108.106 95.1724 105.444 97.6143 101.232C97.6658 101.233 97.7181 101.234 97.7713 101.234C104.29 101.234 109.796 95.4915 109.796 88.694C109.796 88.1152 109.745 87.52 109.642 86.8933C111.935 84.6312 113.232 81.585 113.232 78.3868C113.232 75.9207 112.455 73.5203 111.02 71.4952ZM72.0035 46.1566C70.9921 45.57 69.8189 45.2323 68.5678 45.2323C67.619 45.2323 66.85 46.0014 66.85 46.9501C66.85 47.8989 67.619 48.668 68.5678 48.668C70.4623 48.668 72.0035 50.2092 72.0035 52.1037V84.7719C69.4833 81.9132 65.7981 80.1047 61.6964 80.1047C60.7476 80.1047 59.9786 80.8738 59.9786 81.8225C59.9786 82.7713 60.7476 83.5404 61.6964 83.5404C67.3798 83.5404 72.0035 88.1642 72.0035 93.8475C72.0035 99.7138 67.2834 104.67 61.6964 104.67C57.7192 104.67 54.058 102.318 52.3686 98.6781C52.0572 98.0073 51.3518 97.6117 50.6164 97.6945C50.495 97.7084 50.3742 97.7245 50.2534 97.741C45.3644 98.4096 39.8587 92.8735 41.3491 86.6803C41.5022 86.0442 41.2806 85.3766 40.7778 84.9581C38.7878 83.3023 37.6465 80.9071 37.6465 78.3868C37.6465 76.8286 38.0871 75.3036 38.907 73.9665C40.9674 75.6551 43.5303 76.669 46.2357 76.669C47.1845 76.669 47.9536 75.8999 47.9536 74.9511C47.9536 74.0024 47.1845 73.2333 46.2357 73.2333C41.5736 73.2333 37.6465 68.9782 37.6465 64.1287C37.6465 61.1868 39.146 58.4805 41.658 56.8893C42.4319 56.399 42.6849 55.3877 42.233 54.5908C41.4694 53.2442 41.0822 51.8293 41.0822 50.3858C41.0822 45.7493 44.8618 41.2812 49.6714 41.2812C54.2471 41.2812 58.2607 45.5358 58.2607 50.3858C58.2607 51.3346 59.0298 52.1037 59.9786 52.1037C60.9273 52.1037 61.6964 51.3346 61.6964 50.3858C61.6964 43.5883 56.1897 37.8455 49.6714 37.8455C49.0963 37.8455 48.5243 37.8921 47.9579 37.9802C47.957 37.935 47.9536 37.891 47.9536 37.8455C47.9536 34.0118 51.0658 30.9741 54.825 30.9741C56.66 30.9741 58.3861 31.6889 59.6851 32.9866C60.3563 33.657 61.4439 33.6563 62.1145 32.9853C62.785 32.314 62.7845 31.2264 62.1133 30.556C60.5461 28.9905 58.5639 27.9921 56.4157 27.6612C57.9307 25.4124 60.4499 23.5873 63.4143 23.5873C67.9899 23.5873 72.0035 27.8418 72.0035 32.6919V46.1566ZM101.207 76.669C103.913 76.669 106.476 75.6549 108.536 73.967C109.356 75.304 109.796 76.8287 109.796 78.3868C109.796 80.9071 108.655 83.3023 106.665 84.9581C106.162 85.3766 105.941 86.0443 106.094 86.6803C106.276 87.4367 106.361 88.0766 106.361 88.6938C106.361 94.026 101.538 98.3354 97.1895 97.741C97.0687 97.7245 96.9478 97.7082 96.8263 97.6945C96.0899 97.6112 95.3854 98.0073 95.0743 98.6781C93.385 102.318 89.7234 104.67 85.7464 104.67C80.1594 104.67 75.4392 99.7138 75.4392 93.8475C75.4392 88.1642 80.063 83.5404 85.7464 83.5404C86.695 83.5404 87.4642 82.7713 87.4642 81.8225C87.4642 80.8738 86.695 80.1047 85.7464 80.1047C81.6446 80.1047 77.9595 81.9132 75.4392 84.7719V52.1037C75.4392 50.2092 76.9805 48.668 78.8749 48.668C79.8235 48.668 80.5928 47.8989 80.5928 46.9501C80.5928 46.0014 79.8235 45.2323 78.8749 45.2323C77.6238 45.2323 76.4507 45.57 75.4392 46.1566V32.6919C75.4392 27.8418 79.4528 23.5873 84.0285 23.5873C86.9928 23.5873 89.5119 25.4124 91.0269 27.661C88.8789 27.9919 86.8968 28.9903 85.3294 30.5558C84.6581 31.2263 84.6574 32.3138 85.3279 32.9852C85.9984 33.6565 87.0863 33.657 87.7573 32.9866C89.0568 31.6889 90.7828 30.9741 92.6178 30.9741C96.3958 30.9741 99.4892 34.0296 99.4892 37.8455C99.4892 37.8909 99.4857 37.935 99.4849 37.9802C98.9185 37.8921 98.3465 37.8455 97.7713 37.8455C91.2531 37.8455 85.7464 43.5883 85.7464 50.3858C85.7464 51.3346 86.5156 52.1037 87.4642 52.1037C88.4128 52.1037 89.1821 51.3346 89.1821 50.3858C89.1821 45.5358 93.1957 41.2812 97.7713 41.2812C102.578 41.2812 106.361 45.7471 106.361 50.3858C106.361 51.8293 105.973 53.2442 105.21 54.5908C104.758 55.3877 105.011 56.399 105.785 56.8893C108.297 58.4805 109.796 61.1868 109.796 64.1287C109.796 68.9955 105.855 73.2333 101.207 73.2333C100.258 73.2333 99.4892 74.0024 99.4892 74.9511C99.4892 75.8999 100.258 76.669 101.207 76.669Z"/>
</mask>
<path d="M111.02 71.4952C112.494 69.2822 113.232 66.5211 113.232 64.1287C113.232 60.5219 111.63 57.1708 108.88 54.8985C109.489 53.4445 109.796 51.9322 109.796 50.3858C109.796 45.6007 107.004 41.1433 102.852 39.0617C103.482 33.8371 100.077 29.048 95.0322 27.8265C93.0575 23.2616 88.6624 20.1516 84.0285 20.1516C79.715 20.1516 75.8462 22.6676 73.7214 26.3386C71.5964 22.6676 67.7276 20.1516 63.4143 20.1516C58.78 20.1516 54.3849 23.2616 52.4106 27.8266C47.3352 29.0559 43.9627 33.8688 44.5909 39.0617C40.4392 41.1431 37.6465 45.6007 37.6465 50.3858C37.6465 51.9322 37.954 53.4445 38.5624 54.8985C35.813 57.171 34.2108 60.5219 34.2108 64.1287C34.2108 66.5336 34.9546 69.2911 36.4228 71.495C34.9881 73.5203 34.2108 75.9207 34.2108 78.3868C34.2108 81.5848 35.5074 84.6312 37.8009 86.8933C36.6218 94.021 42.3061 101.234 49.6714 101.234C49.7247 101.234 49.7771 101.233 49.8284 101.232C52.2704 105.444 56.8031 108.106 61.6964 108.106C66.7964 108.106 71.3535 105.044 73.7214 100.634C76.0893 105.044 80.6464 108.106 85.7464 108.106C90.6397 108.106 95.1724 105.444 97.6143 101.232C97.6658 101.233 97.7181 101.234 97.7713 101.234C104.29 101.234 109.796 95.4915 109.796 88.694C109.796 88.1152 109.745 87.52 109.642 86.8933C111.935 84.6312 113.232 81.585 113.232 78.3868C113.232 75.9207 112.455 73.5203 111.02 71.4952ZM72.0035 46.1566C70.9921 45.57 69.8189 45.2323 68.5678 45.2323C67.619 45.2323 66.85 46.0014 66.85 46.9501C66.85 47.8989 67.619 48.668 68.5678 48.668C70.4623 48.668 72.0035 50.2092 72.0035 52.1037V84.7719C69.4833 81.9132 65.7981 80.1047 61.6964 80.1047C60.7476 80.1047 59.9786 80.8738 59.9786 81.8225C59.9786 82.7713 60.7476 83.5404 61.6964 83.5404C67.3798 83.5404 72.0035 88.1642 72.0035 93.8475C72.0035 99.7138 67.2834 104.67 61.6964 104.67C57.7192 104.67 54.058 102.318 52.3686 98.6781C52.0572 98.0073 51.3518 97.6117 50.6164 97.6945C50.495 97.7084 50.3742 97.7245 50.2534 97.741C45.3644 98.4096 39.8587 92.8735 41.3491 86.6803C41.5022 86.0442 41.2806 85.3766 40.7778 84.9581C38.7878 83.3023 37.6465 80.9071 37.6465 78.3868C37.6465 76.8286 38.0871 75.3036 38.907 73.9665C40.9674 75.6551 43.5303 76.669 46.2357 76.669C47.1845 76.669 47.9536 75.8999 47.9536 74.9511C47.9536 74.0024 47.1845 73.2333 46.2357 73.2333C41.5736 73.2333 37.6465 68.9782 37.6465 64.1287C37.6465 61.1868 39.146 58.4805 41.658 56.8893C42.4319 56.399 42.6849 55.3877 42.233 54.5908C41.4694 53.2442 41.0822 51.8293 41.0822 50.3858C41.0822 45.7493 44.8618 41.2812 49.6714 41.2812C54.2471 41.2812 58.2607 45.5358 58.2607 50.3858C58.2607 51.3346 59.0298 52.1037 59.9786 52.1037C60.9273 52.1037 61.6964 51.3346 61.6964 50.3858C61.6964 43.5883 56.1897 37.8455 49.6714 37.8455C49.0963 37.8455 48.5243 37.8921 47.9579 37.9802C47.957 37.935 47.9536 37.891 47.9536 37.8455C47.9536 34.0118 51.0658 30.9741 54.825 30.9741C56.66 30.9741 58.3861 31.6889 59.6851 32.9866C60.3563 33.657 61.4439 33.6563 62.1145 32.9853C62.785 32.314 62.7845 31.2264 62.1133 30.556C60.5461 28.9905 58.5639 27.9921 56.4157 27.6612C57.9307 25.4124 60.4499 23.5873 63.4143 23.5873C67.9899 23.5873 72.0035 27.8418 72.0035 32.6919V46.1566ZM101.207 76.669C103.913 76.669 106.476 75.6549 108.536 73.967C109.356 75.304 109.796 76.8287 109.796 78.3868C109.796 80.9071 108.655 83.3023 106.665 84.9581C106.162 85.3766 105.941 86.0443 106.094 86.6803C106.276 87.4367 106.361 88.0766 106.361 88.6938C106.361 94.026 101.538 98.3354 97.1895 97.741C97.0687 97.7245 96.9478 97.7082 96.8263 97.6945C96.0899 97.6112 95.3854 98.0073 95.0743 98.6781C93.385 102.318 89.7234 104.67 85.7464 104.67C80.1594 104.67 75.4392 99.7138 75.4392 93.8475C75.4392 88.1642 80.063 83.5404 85.7464 83.5404C86.695 83.5404 87.4642 82.7713 87.4642 81.8225C87.4642 80.8738 86.695 80.1047 85.7464 80.1047C81.6446 80.1047 77.9595 81.9132 75.4392 84.7719V52.1037C75.4392 50.2092 76.9805 48.668 78.8749 48.668C79.8235 48.668 80.5928 47.8989 80.5928 46.9501C80.5928 46.0014 79.8235 45.2323 78.8749 45.2323C77.6238 45.2323 76.4507 45.57 75.4392 46.1566V32.6919C75.4392 27.8418 79.4528 23.5873 84.0285 23.5873C86.9928 23.5873 89.5119 25.4124 91.0269 27.661C88.8789 27.9919 86.8968 28.9903 85.3294 30.5558C84.6581 31.2263 84.6574 32.3138 85.3279 32.9852C85.9984 33.6565 87.0863 33.657 87.7573 32.9866C89.0568 31.6889 90.7828 30.9741 92.6178 30.9741C96.3958 30.9741 99.4892 34.0296 99.4892 37.8455C99.4892 37.8909 99.4857 37.935 99.4849 37.9802C98.9185 37.8921 98.3465 37.8455 97.7713 37.8455C91.2531 37.8455 85.7464 43.5883 85.7464 50.3858C85.7464 51.3346 86.5156 52.1037 87.4642 52.1037C88.4128 52.1037 89.1821 51.3346 89.1821 50.3858C89.1821 45.5358 93.1957 41.2812 97.7713 41.2812C102.578 41.2812 106.361 45.7471 106.361 50.3858C106.361 51.8293 105.973 53.2442 105.21 54.5908C104.758 55.3877 105.011 56.399 105.785 56.8893C108.297 58.4805 109.796 61.1868 109.796 64.1287C109.796 68.9955 105.855 73.2333 101.207 73.2333C100.258 73.2333 99.4892 74.0024 99.4892 74.9511C99.4892 75.8999 100.258 76.669 101.207 76.669Z" fill="#DC5866"/>
<path d="M111.02 71.4952C112.494 69.2822 113.232 66.5211 113.232 64.1287C113.232 60.5219 111.63 57.1708 108.88 54.8985C109.489 53.4445 109.796 51.9322 109.796 50.3858C109.796 45.6007 107.004 41.1433 102.852 39.0617C103.482 33.8371 100.077 29.048 95.0322 27.8265C93.0575 23.2616 88.6624 20.1516 84.0285 20.1516C79.715 20.1516 75.8462 22.6676 73.7214 26.3386C71.5964 22.6676 67.7276 20.1516 63.4143 20.1516C58.78 20.1516 54.3849 23.2616 52.4106 27.8266C47.3352 29.0559 43.9627 33.8688 44.5909 39.0617C40.4392 41.1431 37.6465 45.6007 37.6465 50.3858C37.6465 51.9322 37.954 53.4445 38.5624 54.8985C35.813 57.171 34.2108 60.5219 34.2108 64.1287C34.2108 66.5336 34.9546 69.2911 36.4228 71.495C34.9881 73.5203 34.2108 75.9207 34.2108 78.3868C34.2108 81.5848 35.5074 84.6312 37.8009 86.8933C36.6218 94.021 42.3061 101.234 49.6714 101.234C49.7247 101.234 49.7771 101.233 49.8284 101.232C52.2704 105.444 56.8031 108.106 61.6964 108.106C66.7964 108.106 71.3535 105.044 73.7214 100.634C76.0893 105.044 80.6464 108.106 85.7464 108.106C90.6397 108.106 95.1724 105.444 97.6143 101.232C97.6658 101.233 97.7181 101.234 97.7713 101.234C104.29 101.234 109.796 95.4915 109.796 88.694C109.796 88.1152 109.745 87.52 109.642 86.8933C111.935 84.6312 113.232 81.585 113.232 78.3868C113.232 75.9207 112.455 73.5203 111.02 71.4952ZM72.0035 46.1566C70.9921 45.57 69.8189 45.2323 68.5678 45.2323C67.619 45.2323 66.85 46.0014 66.85 46.9501C66.85 47.8989 67.619 48.668 68.5678 48.668C70.4623 48.668 72.0035 50.2092 72.0035 52.1037V84.7719C69.4833 81.9132 65.7981 80.1047 61.6964 80.1047C60.7476 80.1047 59.9786 80.8738 59.9786 81.8225C59.9786 82.7713 60.7476 83.5404 61.6964 83.5404C67.3798 83.5404 72.0035 88.1642 72.0035 93.8475C72.0035 99.7138 67.2834 104.67 61.6964 104.67C57.7192 104.67 54.058 102.318 52.3686 98.6781C52.0572 98.0073 51.3518 97.6117 50.6164 97.6945C50.495 97.7084 50.3742 97.7245 50.2534 97.741C45.3644 98.4096 39.8587 92.8735 41.3491 86.6803C41.5022 86.0442 41.2806 85.3766 40.7778 84.9581C38.7878 83.3023 37.6465 80.9071 37.6465 78.3868C37.6465 76.8286 38.0871 75.3036 38.907 73.9665C40.9674 75.6551 43.5303 76.669 46.2357 76.669C47.1845 76.669 47.9536 75.8999 47.9536 74.9511C47.9536 74.0024 47.1845 73.2333 46.2357 73.2333C41.5736 73.2333 37.6465 68.9782 37.6465 64.1287C37.6465 61.1868 39.146 58.4805 41.658 56.8893C42.4319 56.399 42.6849 55.3877 42.233 54.5908C41.4694 53.2442 41.0822 51.8293 41.0822 50.3858C41.0822 45.7493 44.8618 41.2812 49.6714 41.2812C54.2471 41.2812 58.2607 45.5358 58.2607 50.3858C58.2607 51.3346 59.0298 52.1037 59.9786 52.1037C60.9273 52.1037 61.6964 51.3346 61.6964 50.3858C61.6964 43.5883 56.1897 37.8455 49.6714 37.8455C49.0963 37.8455 48.5243 37.8921 47.9579 37.9802C47.957 37.935 47.9536 37.891 47.9536 37.8455C47.9536 34.0118 51.0658 30.9741 54.825 30.9741C56.66 30.9741 58.3861 31.6889 59.6851 32.9866C60.3563 33.657 61.4439 33.6563 62.1145 32.9853C62.785 32.314 62.7845 31.2264 62.1133 30.556C60.5461 28.9905 58.5639 27.9921 56.4157 27.6612C57.9307 25.4124 60.4499 23.5873 63.4143 23.5873C67.9899 23.5873 72.0035 27.8418 72.0035 32.6919V46.1566ZM101.207 76.669C103.913 76.669 106.476 75.6549 108.536 73.967C109.356 75.304 109.796 76.8287 109.796 78.3868C109.796 80.9071 108.655 83.3023 106.665 84.9581C106.162 85.3766 105.941 86.0443 106.094 86.6803C106.276 87.4367 106.361 88.0766 106.361 88.6938C106.361 94.026 101.538 98.3354 97.1895 97.741C97.0687 97.7245 96.9478 97.7082 96.8263 97.6945C96.0899 97.6112 95.3854 98.0073 95.0743 98.6781C93.385 102.318 89.7234 104.67 85.7464 104.67C80.1594 104.67 75.4392 99.7138 75.4392 93.8475C75.4392 88.1642 80.063 83.5404 85.7464 83.5404C86.695 83.5404 87.4642 82.7713 87.4642 81.8225C87.4642 80.8738 86.695 80.1047 85.7464 80.1047C81.6446 80.1047 77.9595 81.9132 75.4392 84.7719V52.1037C75.4392 50.2092 76.9805 48.668 78.8749 48.668C79.8235 48.668 80.5928 47.8989 80.5928 46.9501C80.5928 46.0014 79.8235 45.2323 78.8749 45.2323C77.6238 45.2323 76.4507 45.57 75.4392 46.1566V32.6919C75.4392 27.8418 79.4528 23.5873 84.0285 23.5873C86.9928 23.5873 89.5119 25.4124 91.0269 27.661C88.8789 27.9919 86.8968 28.9903 85.3294 30.5558C84.6581 31.2263 84.6574 32.3138 85.3279 32.9852C85.9984 33.6565 87.0863 33.657 87.7573 32.9866C89.0568 31.6889 90.7828 30.9741 92.6178 30.9741C96.3958 30.9741 99.4892 34.0296 99.4892 37.8455C99.4892 37.8909 99.4857 37.935 99.4849 37.9802C98.9185 37.8921 98.3465 37.8455 97.7713 37.8455C91.2531 37.8455 85.7464 43.5883 85.7464 50.3858C85.7464 51.3346 86.5156 52.1037 87.4642 52.1037C88.4128 52.1037 89.1821 51.3346 89.1821 50.3858C89.1821 45.5358 93.1957 41.2812 97.7713 41.2812C102.578 41.2812 106.361 45.7471 106.361 50.3858C106.361 51.8293 105.973 53.2442 105.21 54.5908C104.758 55.3877 105.011 56.399 105.785 56.8893C108.297 58.4805 109.796 61.1868 109.796 64.1287C109.796 68.9955 105.855 73.2333 101.207 73.2333C100.258 73.2333 99.4892 74.0024 99.4892 74.9511C99.4892 75.8999 100.258 76.669 101.207 76.669Z" stroke="#DC5866" stroke-width="4" mask="url(#path-4-outside-1)"/>
<path d="M65.038 56.0424L65.0379 56.0424C60.1734 60.3938 52.3893 56.9129 52.3893 50.3858C52.3893 48.8848 51.1725 47.668 49.6714 47.668C48.1704 47.668 46.9536 48.8848 46.9536 50.3858C46.9536 56.3964 51.0438 61.4632 56.5854 62.9598C55.8424 64.0957 54.5591 64.8465 53.1071 64.8465C51.6061 64.8465 50.3893 66.0633 50.3893 67.5644C50.3893 69.0654 51.6061 70.2822 53.1071 70.2822C57.5337 70.2822 61.2633 67.2697 62.3646 63.1893C64.6928 62.7564 66.8718 61.6951 68.6619 60.0937C69.7806 59.093 69.8763 57.3748 68.8756 56.256C67.8748 55.1373 66.1568 55.0418 65.038 56.0424Z" fill="#DC5866" stroke="#DC5866" stroke-width="2"/>
<path d="M49.6714 85.9761C48.1704 85.9761 46.9536 87.1929 46.9536 88.6939C46.9536 90.195 48.1704 91.4118 49.6714 91.4118C53.6407 91.4118 57.2607 95.163 57.2607 99.5164C57.2607 101.017 58.4775 102.234 59.9785 102.234C61.4796 102.234 62.6964 101.017 62.6964 99.5164C62.6964 92.2065 56.781 85.9761 49.6714 85.9761Z" fill="#DC5866" stroke="#DC5866" stroke-width="2"/>
<path d="M49.0935 80.5749L49.0934 80.575C48.3535 81.8808 48.8118 83.5395 50.1176 84.2796L50.1177 84.2797C51.4234 85.0196 53.0819 84.5615 53.8223 83.2556L53.8223 83.2555C55.7032 79.9371 59.2694 77.669 63.4143 77.669C64.9153 77.669 66.1321 76.4522 66.1321 74.9511C66.1321 73.4501 64.9153 72.2333 63.4143 72.2333C57.2159 72.2333 51.8942 75.6347 49.0935 80.5749Z" fill="#DC5866" stroke="#DC5866" stroke-width="2"/>
<path d="M90.8574 62.9598C91.6004 64.0957 92.8836 64.8465 94.3356 64.8465C95.8365 64.8465 97.0535 66.0632 97.0535 67.5644C97.0535 69.0655 95.8365 70.2822 94.3356 70.2822C89.909 70.2822 86.1795 67.2697 85.0782 63.1893C82.7501 62.7564 80.5709 61.6951 78.7808 60.0937C77.6623 59.0931 77.5661 57.375 78.5671 56.2561L90.8574 62.9598ZM90.8574 62.9598C96.3989 61.4632 100.489 56.3964 100.489 50.3858C100.489 48.8847 99.2722 47.668 97.7713 47.668C96.2705 47.668 95.0535 48.8847 95.0535 50.3858C95.0535 54.5697 91.6481 57.9751 87.4642 57.9751C85.5946 57.9751 83.7986 57.289 82.4049 56.0425L90.8574 62.9598ZM82.4048 56.0424C81.2864 55.0418 79.5681 55.1371 78.5673 56.2559L82.4048 56.0424Z" fill="#DC5866" stroke="#DC5866" stroke-width="2"/>
<path d="M97.7713 85.9761C90.6617 85.9761 84.7463 92.2065 84.7463 99.5164C84.7463 101.018 85.9634 102.234 87.4642 102.234C88.965 102.234 90.182 101.018 90.182 99.5164C90.182 95.163 93.802 91.4118 97.7713 91.4118C99.2721 91.4118 100.489 90.195 100.489 88.6939C100.489 87.1928 99.2721 85.9761 97.7713 85.9761Z" fill="#DC5866" stroke="#DC5866" stroke-width="2"/>
<path d="M98.3493 80.5753L98.3492 80.5751C95.5555 75.6467 90.2411 72.2333 84.0285 72.2333C82.5276 72.2333 81.3106 73.45 81.3106 74.9511C81.3106 76.4522 82.5276 77.669 84.0285 77.669C88.1703 77.669 91.7392 79.9366 93.62 83.2554L93.62 83.2555C94.3612 84.5631 96.021 85.0191 97.3249 84.2797C98.6308 83.5395 99.089 81.881 98.3493 80.5753Z" fill="#DC5866" stroke="#DC5866" stroke-width="2"/>
</svg>
