<svg width="562" height="490" viewBox="0 0 562 490" fill="none" xmlns="http://www.w3.org/2000/svg">
<path d="M560.279 237.835L426.217 5.90968C423.916 1.91971 419.667 0 415.066 0H146.934C142.332 0 138.083 1.91971 135.783 5.90968L1.72057 238.104C-0.573525 242.093 -0.573525 246.868 1.72057 250.858L135.783 483.306C138.083 487.297 142.332 489.743 146.934 489.743H415.064C419.666 489.743 423.915 487.229 426.216 483.239L560.278 250.754C562.574 246.764 562.574 241.825 560.279 237.835Z" fill="#DC5866"/>
<path d="M313.93 129.935C309.742 129.935 306.344 133.333 306.344 137.521C306.344 141.708 309.742 145.107 313.93 145.107C318.117 145.107 321.516 141.708 321.516 137.521C321.516 133.333 318.117 129.935 313.93 129.935Z" fill="white" stroke="white" stroke-width="2"/>
<path d="M248.07 129.935C243.883 129.935 240.484 133.333 240.484 137.521C240.484 141.708 243.883 145.107 248.07 145.107C252.258 145.107 255.656 141.708 255.656 137.521C255.656 133.333 252.258 129.935 248.07 129.935Z" fill="white" stroke="white" stroke-width="2"/>
<mask id="path-4-outside-1" maskUnits="userSpaceOnUse" x="127.523" y="74.2715" width="307" height="342" fill="black">
<rect fill="white" x="127.523" y="74.2715" width="307" height="342"/>
<path d="M423.996 273.113C429.649 264.629 432.477 254.044 432.477 244.871C432.477 231.044 426.334 218.196 415.793 209.485C418.126 203.91 419.305 198.113 419.305 192.184C419.305 173.839 408.599 156.75 392.681 148.769C395.096 128.739 382.044 110.379 362.702 105.695C355.131 88.1947 338.281 76.2715 320.516 76.2715C303.978 76.2715 289.146 85.9172 281 99.9914C272.853 85.9172 258.021 76.2715 241.484 76.2715C223.717 76.2715 206.867 88.1947 199.298 105.696C179.84 110.409 166.91 128.861 169.319 148.769C153.402 156.749 142.695 173.839 142.695 192.184C142.695 198.113 143.874 203.91 146.207 209.485C135.666 218.197 129.523 231.044 129.523 244.871C129.523 254.092 132.375 264.664 138.004 273.113C132.504 280.877 129.523 290.08 129.523 299.535C129.523 311.795 134.495 323.475 143.287 332.147C138.767 359.473 160.56 387.128 188.797 387.128C189.001 387.128 189.202 387.124 189.399 387.119C198.761 403.269 216.138 413.471 234.898 413.471C254.451 413.471 271.922 401.735 281 384.827C290.078 401.735 307.549 413.471 327.102 413.471C345.862 413.471 363.239 403.269 372.601 387.119C372.799 387.124 372.999 387.128 373.203 387.128C398.193 387.128 419.305 365.111 419.305 339.05C419.305 336.832 419.11 334.55 418.713 332.147C427.506 323.475 432.477 311.796 432.477 299.535C432.477 290.08 429.496 280.877 423.996 273.113ZM274.414 175.97C270.536 173.721 266.039 172.426 261.242 172.426C257.605 172.426 254.656 175.375 254.656 179.012C254.656 182.65 257.605 185.598 261.242 185.598C268.505 185.598 274.414 191.507 274.414 198.77V324.014C264.752 313.054 250.624 306.121 234.898 306.121C231.261 306.121 228.312 309.069 228.312 312.707C228.312 316.344 231.261 319.293 234.898 319.293C256.687 319.293 274.414 337.019 274.414 358.808C274.414 381.299 256.318 400.3 234.898 400.3C219.651 400.3 205.614 391.283 199.137 377.328C197.943 374.756 195.239 373.239 192.42 373.557C191.954 373.61 191.491 373.672 191.028 373.735C172.285 376.298 151.177 355.074 156.891 331.33C157.477 328.892 156.628 326.332 154.7 324.728C147.071 318.38 142.695 309.197 142.695 299.535C142.695 293.561 144.385 287.714 147.528 282.588C155.427 289.062 165.253 292.949 175.625 292.949C179.262 292.949 182.211 290 182.211 286.363C182.211 282.725 179.262 279.777 175.625 279.777C157.751 279.777 142.695 263.464 142.695 244.871C142.695 233.593 148.444 223.218 158.075 217.117C161.042 215.237 162.012 211.36 160.279 208.305C157.352 203.142 155.867 197.718 155.867 192.184C155.867 174.409 170.358 157.279 188.797 157.279C206.339 157.279 221.727 173.59 221.727 192.184C221.727 195.821 224.675 198.77 228.312 198.77C231.95 198.77 234.898 195.821 234.898 192.184C234.898 166.123 213.787 144.107 188.797 144.107C186.592 144.107 184.399 144.285 182.227 144.623C182.224 144.45 182.211 144.281 182.211 144.107C182.211 129.409 194.143 117.763 208.555 117.763C215.59 117.763 222.207 120.503 227.188 125.478C229.761 128.049 233.93 128.046 236.501 125.474C239.072 122.9 239.07 118.73 236.497 116.16C230.488 110.158 222.889 106.33 214.653 105.062C220.461 96.4403 230.12 89.4434 241.484 89.4434C259.027 89.4434 274.414 105.754 274.414 124.349V175.97ZM386.375 292.949C396.748 292.949 406.573 289.061 414.473 282.59C417.615 287.716 419.305 293.561 419.305 299.535C419.305 309.197 414.929 318.38 407.301 324.728C405.372 326.332 404.523 328.892 405.11 331.33C405.808 334.23 406.133 336.683 406.133 339.05C406.133 359.492 387.643 376.014 370.972 373.735C370.509 373.672 370.046 373.609 369.58 373.557C366.757 373.237 364.056 374.756 362.863 377.328C356.387 391.283 342.349 400.3 327.102 400.3C305.682 400.3 287.586 381.299 287.586 358.808C287.586 337.019 305.313 319.293 327.102 319.293C330.738 319.293 333.688 316.344 333.688 312.707C333.688 309.069 330.738 306.121 327.102 306.121C311.376 306.121 297.248 313.054 287.586 324.014V198.77C287.586 191.507 293.495 185.598 300.758 185.598C304.395 185.598 307.344 182.65 307.344 179.012C307.344 175.375 304.395 172.426 300.758 172.426C295.961 172.426 291.464 173.721 287.586 175.97V124.349C287.586 105.754 302.973 89.4434 320.516 89.4434C331.88 89.4434 341.538 96.4403 347.346 105.061C339.111 106.33 331.512 110.157 325.503 116.159C322.929 118.73 322.927 122.899 325.497 125.473C328.068 128.047 332.239 128.049 334.811 125.478C339.793 120.503 346.41 117.763 353.445 117.763C367.93 117.763 379.789 129.477 379.789 144.107C379.789 144.281 379.776 144.45 379.773 144.623C377.601 144.285 375.408 144.107 373.203 144.107C348.213 144.107 327.102 166.123 327.102 192.184C327.102 195.821 330.051 198.77 333.688 198.77C337.324 198.77 340.273 195.821 340.273 192.184C340.273 173.59 355.661 157.279 373.203 157.279C391.632 157.279 406.133 174.4 406.133 192.184C406.133 197.718 404.648 203.142 401.721 208.305C399.989 211.36 400.959 215.237 403.926 217.117C413.556 223.218 419.305 233.593 419.305 244.871C419.305 263.53 404.196 279.777 386.375 279.777C382.738 279.777 379.789 282.725 379.789 286.363C379.789 290 382.738 292.949 386.375 292.949Z"/>
</mask>
<path d="M423.996 273.113C429.649 264.629 432.477 254.044 432.477 244.871C432.477 231.044 426.334 218.196 415.793 209.485C418.126 203.91 419.305 198.113 419.305 192.184C419.305 173.839 408.599 156.75 392.681 148.769C395.096 128.739 382.044 110.379 362.702 105.695C355.131 88.1947 338.281 76.2715 320.516 76.2715C303.978 76.2715 289.146 85.9172 281 99.9914C272.853 85.9172 258.021 76.2715 241.484 76.2715C223.717 76.2715 206.867 88.1947 199.298 105.696C179.84 110.409 166.91 128.861 169.319 148.769C153.402 156.749 142.695 173.839 142.695 192.184C142.695 198.113 143.874 203.91 146.207 209.485C135.666 218.197 129.523 231.044 129.523 244.871C129.523 254.092 132.375 264.664 138.004 273.113C132.504 280.877 129.523 290.08 129.523 299.535C129.523 311.795 134.495 323.475 143.287 332.147C138.767 359.473 160.56 387.128 188.797 387.128C189.001 387.128 189.202 387.124 189.399 387.119C198.761 403.269 216.138 413.471 234.898 413.471C254.451 413.471 271.922 401.735 281 384.827C290.078 401.735 307.549 413.471 327.102 413.471C345.862 413.471 363.239 403.269 372.601 387.119C372.799 387.124 372.999 387.128 373.203 387.128C398.193 387.128 419.305 365.111 419.305 339.05C419.305 336.832 419.11 334.55 418.713 332.147C427.506 323.475 432.477 311.796 432.477 299.535C432.477 290.08 429.496 280.877 423.996 273.113ZM274.414 175.97C270.536 173.721 266.039 172.426 261.242 172.426C257.605 172.426 254.656 175.375 254.656 179.012C254.656 182.65 257.605 185.598 261.242 185.598C268.505 185.598 274.414 191.507 274.414 198.77V324.014C264.752 313.054 250.624 306.121 234.898 306.121C231.261 306.121 228.312 309.069 228.312 312.707C228.312 316.344 231.261 319.293 234.898 319.293C256.687 319.293 274.414 337.019 274.414 358.808C274.414 381.299 256.318 400.3 234.898 400.3C219.651 400.3 205.614 391.283 199.137 377.328C197.943 374.756 195.239 373.239 192.42 373.557C191.954 373.61 191.491 373.672 191.028 373.735C172.285 376.298 151.177 355.074 156.891 331.33C157.477 328.892 156.628 326.332 154.7 324.728C147.071 318.38 142.695 309.197 142.695 299.535C142.695 293.561 144.385 287.714 147.528 282.588C155.427 289.062 165.253 292.949 175.625 292.949C179.262 292.949 182.211 290 182.211 286.363C182.211 282.725 179.262 279.777 175.625 279.777C157.751 279.777 142.695 263.464 142.695 244.871C142.695 233.593 148.444 223.218 158.075 217.117C161.042 215.237 162.012 211.36 160.279 208.305C157.352 203.142 155.867 197.718 155.867 192.184C155.867 174.409 170.358 157.279 188.797 157.279C206.339 157.279 221.727 173.59 221.727 192.184C221.727 195.821 224.675 198.77 228.312 198.77C231.95 198.77 234.898 195.821 234.898 192.184C234.898 166.123 213.787 144.107 188.797 144.107C186.592 144.107 184.399 144.285 182.227 144.623C182.224 144.45 182.211 144.281 182.211 144.107C182.211 129.409 194.143 117.763 208.555 117.763C215.59 117.763 222.207 120.503 227.188 125.478C229.761 128.049 233.93 128.046 236.501 125.474C239.072 122.9 239.07 118.73 236.497 116.16C230.488 110.158 222.889 106.33 214.653 105.062C220.461 96.4403 230.12 89.4434 241.484 89.4434C259.027 89.4434 274.414 105.754 274.414 124.349V175.97ZM386.375 292.949C396.748 292.949 406.573 289.061 414.473 282.59C417.615 287.716 419.305 293.561 419.305 299.535C419.305 309.197 414.929 318.38 407.301 324.728C405.372 326.332 404.523 328.892 405.11 331.33C405.808 334.23 406.133 336.683 406.133 339.05C406.133 359.492 387.643 376.014 370.972 373.735C370.509 373.672 370.046 373.609 369.58 373.557C366.757 373.237 364.056 374.756 362.863 377.328C356.387 391.283 342.349 400.3 327.102 400.3C305.682 400.3 287.586 381.299 287.586 358.808C287.586 337.019 305.313 319.293 327.102 319.293C330.738 319.293 333.688 316.344 333.688 312.707C333.688 309.069 330.738 306.121 327.102 306.121C311.376 306.121 297.248 313.054 287.586 324.014V198.77C287.586 191.507 293.495 185.598 300.758 185.598C304.395 185.598 307.344 182.65 307.344 179.012C307.344 175.375 304.395 172.426 300.758 172.426C295.961 172.426 291.464 173.721 287.586 175.97V124.349C287.586 105.754 302.973 89.4434 320.516 89.4434C331.88 89.4434 341.538 96.4403 347.346 105.061C339.111 106.33 331.512 110.157 325.503 116.159C322.929 118.73 322.927 122.899 325.497 125.473C328.068 128.047 332.239 128.049 334.811 125.478C339.793 120.503 346.41 117.763 353.445 117.763C367.93 117.763 379.789 129.477 379.789 144.107C379.789 144.281 379.776 144.45 379.773 144.623C377.601 144.285 375.408 144.107 373.203 144.107C348.213 144.107 327.102 166.123 327.102 192.184C327.102 195.821 330.051 198.77 333.688 198.77C337.324 198.77 340.273 195.821 340.273 192.184C340.273 173.59 355.661 157.279 373.203 157.279C391.632 157.279 406.133 174.4 406.133 192.184C406.133 197.718 404.648 203.142 401.721 208.305C399.989 211.36 400.959 215.237 403.926 217.117C413.556 223.218 419.305 233.593 419.305 244.871C419.305 263.53 404.196 279.777 386.375 279.777C382.738 279.777 379.789 282.725 379.789 286.363C379.789 290 382.738 292.949 386.375 292.949Z" fill="white"/>
<path d="M423.996 273.113C429.649 264.629 432.477 254.044 432.477 244.871C432.477 231.044 426.334 218.196 415.793 209.485C418.126 203.91 419.305 198.113 419.305 192.184C419.305 173.839 408.599 156.75 392.681 148.769C395.096 128.739 382.044 110.379 362.702 105.695C355.131 88.1947 338.281 76.2715 320.516 76.2715C303.978 76.2715 289.146 85.9172 281 99.9914C272.853 85.9172 258.021 76.2715 241.484 76.2715C223.717 76.2715 206.867 88.1947 199.298 105.696C179.84 110.409 166.91 128.861 169.319 148.769C153.402 156.749 142.695 173.839 142.695 192.184C142.695 198.113 143.874 203.91 146.207 209.485C135.666 218.197 129.523 231.044 129.523 244.871C129.523 254.092 132.375 264.664 138.004 273.113C132.504 280.877 129.523 290.08 129.523 299.535C129.523 311.795 134.495 323.475 143.287 332.147C138.767 359.473 160.56 387.128 188.797 387.128C189.001 387.128 189.202 387.124 189.399 387.119C198.761 403.269 216.138 413.471 234.898 413.471C254.451 413.471 271.922 401.735 281 384.827C290.078 401.735 307.549 413.471 327.102 413.471C345.862 413.471 363.239 403.269 372.601 387.119C372.799 387.124 372.999 387.128 373.203 387.128C398.193 387.128 419.305 365.111 419.305 339.05C419.305 336.832 419.11 334.55 418.713 332.147C427.506 323.475 432.477 311.796 432.477 299.535C432.477 290.08 429.496 280.877 423.996 273.113ZM274.414 175.97C270.536 173.721 266.039 172.426 261.242 172.426C257.605 172.426 254.656 175.375 254.656 179.012C254.656 182.65 257.605 185.598 261.242 185.598C268.505 185.598 274.414 191.507 274.414 198.77V324.014C264.752 313.054 250.624 306.121 234.898 306.121C231.261 306.121 228.312 309.069 228.312 312.707C228.312 316.344 231.261 319.293 234.898 319.293C256.687 319.293 274.414 337.019 274.414 358.808C274.414 381.299 256.318 400.3 234.898 400.3C219.651 400.3 205.614 391.283 199.137 377.328C197.943 374.756 195.239 373.239 192.42 373.557C191.954 373.61 191.491 373.672 191.028 373.735C172.285 376.298 151.177 355.074 156.891 331.33C157.477 328.892 156.628 326.332 154.7 324.728C147.071 318.38 142.695 309.197 142.695 299.535C142.695 293.561 144.385 287.714 147.528 282.588C155.427 289.062 165.253 292.949 175.625 292.949C179.262 292.949 182.211 290 182.211 286.363C182.211 282.725 179.262 279.777 175.625 279.777C157.751 279.777 142.695 263.464 142.695 244.871C142.695 233.593 148.444 223.218 158.075 217.117C161.042 215.237 162.012 211.36 160.279 208.305C157.352 203.142 155.867 197.718 155.867 192.184C155.867 174.409 170.358 157.279 188.797 157.279C206.339 157.279 221.727 173.59 221.727 192.184C221.727 195.821 224.675 198.77 228.312 198.77C231.95 198.77 234.898 195.821 234.898 192.184C234.898 166.123 213.787 144.107 188.797 144.107C186.592 144.107 184.399 144.285 182.227 144.623C182.224 144.45 182.211 144.281 182.211 144.107C182.211 129.409 194.143 117.763 208.555 117.763C215.59 117.763 222.207 120.503 227.188 125.478C229.761 128.049 233.93 128.046 236.501 125.474C239.072 122.9 239.07 118.73 236.497 116.16C230.488 110.158 222.889 106.33 214.653 105.062C220.461 96.4403 230.12 89.4434 241.484 89.4434C259.027 89.4434 274.414 105.754 274.414 124.349V175.97ZM386.375 292.949C396.748 292.949 406.573 289.061 414.473 282.59C417.615 287.716 419.305 293.561 419.305 299.535C419.305 309.197 414.929 318.38 407.301 324.728C405.372 326.332 404.523 328.892 405.11 331.33C405.808 334.23 406.133 336.683 406.133 339.05C406.133 359.492 387.643 376.014 370.972 373.735C370.509 373.672 370.046 373.609 369.58 373.557C366.757 373.237 364.056 374.756 362.863 377.328C356.387 391.283 342.349 400.3 327.102 400.3C305.682 400.3 287.586 381.299 287.586 358.808C287.586 337.019 305.313 319.293 327.102 319.293C330.738 319.293 333.688 316.344 333.688 312.707C333.688 309.069 330.738 306.121 327.102 306.121C311.376 306.121 297.248 313.054 287.586 324.014V198.77C287.586 191.507 293.495 185.598 300.758 185.598C304.395 185.598 307.344 182.65 307.344 179.012C307.344 175.375 304.395 172.426 300.758 172.426C295.961 172.426 291.464 173.721 287.586 175.97V124.349C287.586 105.754 302.973 89.4434 320.516 89.4434C331.88 89.4434 341.538 96.4403 347.346 105.061C339.111 106.33 331.512 110.157 325.503 116.159C322.929 118.73 322.927 122.899 325.497 125.473C328.068 128.047 332.239 128.049 334.811 125.478C339.793 120.503 346.41 117.763 353.445 117.763C367.93 117.763 379.789 129.477 379.789 144.107C379.789 144.281 379.776 144.45 379.773 144.623C377.601 144.285 375.408 144.107 373.203 144.107C348.213 144.107 327.102 166.123 327.102 192.184C327.102 195.821 330.051 198.77 333.688 198.77C337.324 198.77 340.273 195.821 340.273 192.184C340.273 173.59 355.661 157.279 373.203 157.279C391.632 157.279 406.133 174.4 406.133 192.184C406.133 197.718 404.648 203.142 401.721 208.305C399.989 211.36 400.959 215.237 403.926 217.117C413.556 223.218 419.305 233.593 419.305 244.871C419.305 263.53 404.196 279.777 386.375 279.777C382.738 279.777 379.789 282.725 379.789 286.363C379.789 290 382.738 292.949 386.375 292.949Z" stroke="white" stroke-width="4" mask="url(#path-4-outside-1)"/>
<path d="M249.599 215.983L249.599 215.983C229.123 234.298 196.383 219.657 196.383 192.184C196.383 187.994 192.987 184.598 188.797 184.598C184.607 184.598 181.211 187.994 181.211 192.184C181.211 215.136 197.712 234.293 219.471 238.443C216.756 245.465 209.932 250.458 201.969 250.458C197.779 250.458 194.383 253.854 194.383 258.043C194.383 262.233 197.779 265.629 201.969 265.629C218.251 265.629 231.879 254.102 235.147 238.782C244.239 237.452 252.782 233.491 259.714 227.29C262.836 224.497 263.103 219.701 260.31 216.579C257.517 213.456 252.722 213.189 249.599 215.983Z" fill="white" stroke="white" stroke-width="2"/>
<path d="M188.797 331.464C184.607 331.464 181.211 334.861 181.211 339.05C181.211 343.24 184.607 346.636 188.797 346.636C205.733 346.636 220.727 362.444 220.727 380.542C220.727 384.732 224.123 388.128 228.312 388.128C232.502 388.128 235.898 384.732 235.898 380.542C235.898 353.969 214.378 331.464 188.797 331.464Z" fill="white" stroke="white" stroke-width="2"/>
<path d="M189.046 309.321L189.046 309.321C186.981 312.966 188.26 317.596 191.905 319.661L191.905 319.661C195.55 321.727 200.179 320.448 202.245 316.803L202.245 316.803C209.936 303.234 224.527 293.949 241.484 293.949C245.674 293.949 249.07 290.553 249.07 286.363C249.07 282.173 245.674 278.777 241.484 278.777C218.79 278.777 199.305 291.226 189.046 309.321Z" fill="white" stroke="white" stroke-width="2"/>
<path d="M342.529 238.443C345.244 245.465 352.068 250.458 360.031 250.458C364.22 250.458 367.617 253.854 367.617 258.043C367.617 262.233 364.22 265.629 360.031 265.629C343.749 265.629 330.121 254.102 326.853 238.782C317.761 237.452 309.218 233.491 302.286 227.29C299.164 224.497 298.896 219.701 301.69 216.579L342.529 238.443ZM342.529 238.443C364.288 234.293 380.789 215.136 380.789 192.184C380.789 187.994 377.392 184.598 373.203 184.598C369.014 184.598 365.617 187.994 365.617 192.184C365.617 209.789 351.293 224.114 333.688 224.114C325.822 224.114 318.264 221.226 312.402 215.983C309.28 213.189 304.483 213.456 301.69 216.579L342.529 238.443Z" fill="white" stroke="white" stroke-width="2"/>
<path d="M373.203 331.464C347.622 331.464 326.102 353.969 326.102 380.542C326.102 384.732 329.499 388.128 333.688 388.128C337.876 388.128 341.273 384.732 341.273 380.542C341.273 362.444 356.267 346.636 373.203 346.636C377.392 346.636 380.789 343.24 380.789 339.05C380.789 334.861 377.392 331.464 373.203 331.464Z" fill="white" stroke="white" stroke-width="2"/>
<path d="M372.954 309.322L372.953 309.322C362.72 291.269 343.262 278.777 320.516 278.777C316.327 278.777 312.93 282.173 312.93 286.363C312.93 290.553 316.327 293.949 320.516 293.949C337.461 293.949 352.062 303.232 359.753 316.803L359.753 316.803C361.822 320.453 366.455 321.725 370.094 319.662C373.739 317.596 375.018 312.967 372.954 309.322Z" fill="white" stroke="white" stroke-width="2"/>
</svg>
