<svg width="70" height="112" viewBox="0 0 70 112" fill="none" xmlns="http://www.w3.org/2000/svg">
<path d="M60.8333 19.5H9.16667C7.79638 19.5 6.48222 20.0443 5.51328 21.0133C4.54434 21.9822 4 23.2964 4 24.6667V102.167C4 103.537 4.54434 104.851 5.51328 105.82C6.48222 106.789 7.79638 107.333 9.16667 107.333H60.8333C62.2036 107.333 63.5178 106.789 64.4867 105.82C65.4557 104.851 66 103.537 66 102.167V24.6667C66 23.2964 65.4557 21.9822 64.4867 21.0133C63.5178 20.0443 62.2036 19.5 60.8333 19.5Z" stroke="white" stroke-width="8" stroke-linejoin="round"/>
<path d="M4 40.1667H66" stroke="white" stroke-width="8" stroke-linecap="round"/>
<path d="M4 32.4167V47.9167" stroke="white" stroke-width="8" stroke-linecap="round" stroke-linejoin="round"/>
<path d="M66 32.4167V47.9167" stroke="white" stroke-width="8" stroke-linecap="round" stroke-linejoin="round"/>
<path d="M55.6666 4H14.3333V19.5H55.6666V4Z" stroke="white" stroke-width="8" stroke-linejoin="round"/>
<path d="M24.6667 73.75H45.3334" stroke="white" stroke-width="8" stroke-linecap="round"/>
<path d="M35 63.4167V84.0834" stroke="white" stroke-width="8" stroke-linecap="round"/>
</svg>
