<svg width="99" height="102" viewBox="0 0 99 102" fill="none" xmlns="http://www.w3.org/2000/svg">
<path d="M92.143 17.6847L45.2482 0.632975C43.6741 0.0574519 41.9844 -0.12948 40.3227 0.0880659C38.6609 0.305612 37.0762 0.921206 35.7033 1.88253C34.3303 2.84385 33.2097 4.12248 32.4367 5.60976C31.6637 7.09703 31.2611 8.74898 31.2632 10.4252V42.3659C28.1101 40.487 24.5123 39.4848 20.8421 39.4632C9.34768 39.4632 0 48.8124 0 60.3088C0 71.8051 9.34768 81.1544 20.8421 81.1544C32.3365 81.1544 41.6842 71.8051 41.6842 60.3088V10.4252L88.5789 27.4769V63.2063C85.4245 61.3313 81.8273 60.3311 78.1579 60.3088C66.6635 60.3088 57.3158 69.658 57.3158 81.1544C57.3158 92.6507 66.6635 102 78.1579 102C89.6523 102 99 92.6507 99 81.1544V27.4769C99 23.1098 96.2436 19.1699 92.143 17.6847ZM20.8421 70.7316C15.0949 70.7316 10.4211 66.0569 10.4211 60.3088C10.4211 54.5606 15.0949 49.886 20.8421 49.886C26.5893 49.886 31.2632 54.5606 31.2632 60.3088C31.2632 66.0569 26.5893 70.7316 20.8421 70.7316ZM78.1579 91.5772C72.4107 91.5772 67.7368 86.9026 67.7368 81.1544C67.7368 75.4062 72.4107 70.7316 78.1579 70.7316C83.9051 70.7316 88.5789 75.4062 88.5789 81.1544C88.5789 86.9026 83.9051 91.5772 78.1579 91.5772Z" fill="white"/>
</svg>
