<svg width="96" height="112" viewBox="0 0 96 112" fill="none" xmlns="http://www.w3.org/2000/svg">
<path d="M53.336 48L85.0798 98.752C85.2383 99.0075 85.3257 99.3006 85.3331 99.6011C85.3405 99.9016 85.2676 100.199 85.1219 100.462C84.9762 100.725 84.763 100.944 84.5042 101.097C84.2455 101.25 83.9505 101.332 83.6498 101.333H12.3502C12.0479 101.332 11.7515 101.249 11.4919 101.095C11.2323 100.94 11.0189 100.718 10.874 100.453C10.7291 100.188 10.658 99.8888 10.6679 99.5868C10.6779 99.2848 10.7687 98.991 10.9308 98.736L42.664 48V10.6667H53.336V48ZM21.32 0V10.6667H31.992V45.12L1.89166 93.0667C0.718037 94.9362 0.0665414 97.0857 0.00483193 99.2919C-0.0568776 101.498 0.473449 103.681 1.54074 105.613C2.60803 107.545 4.17337 109.156 6.0742 110.279C7.97503 111.403 10.142 111.997 12.3502 112H83.6498C85.8579 111.997 88.025 111.403 89.9258 110.279C91.8266 109.156 93.392 107.545 94.4593 105.613C95.5266 103.681 96.0569 101.498 95.9952 99.2919C95.9335 97.0857 95.282 94.9362 94.1083 93.0667L64.0133 45.12L64.008 10.6667H74.68V0H21.32Z" fill="white"/>
</svg>
