<svg width="100" height="100" viewBox="0 0 100 100" fill="none" xmlns="http://www.w3.org/2000/svg">
<path d="M58.5998 36.1002C58.9431 35.7317 59.3571 35.4362 59.8171 35.2313C60.2771 35.0263 60.7737 34.9161 61.2772 34.9072C61.7807 34.8983 62.2808 34.9909 62.7478 35.1795C63.2147 35.3682 63.6389 35.6489 63.995 36.005C64.3511 36.3611 64.6318 36.7852 64.8204 37.2522C65.009 37.7191 65.1016 38.2193 65.0928 38.7228C65.0839 39.2263 64.9737 39.7229 64.7687 40.1828C64.5637 40.6428 64.2682 41.0568 63.8998 41.4002L41.3998 63.9002C41.0565 64.2686 40.6425 64.5641 40.1825 64.7691C39.7225 64.974 39.2259 65.0842 38.7224 65.0931C38.2189 65.102 37.7187 65.0094 37.2518 64.8208C36.7849 64.6322 36.3607 64.3514 36.0046 63.9953C35.6485 63.6393 35.3678 63.2151 35.1792 62.7481C34.9906 62.2812 34.8979 61.7811 34.9068 61.2775C34.9157 60.774 35.0259 60.2775 35.2309 59.8175C35.4358 59.3575 35.7314 58.9435 36.0998 58.6002L58.5998 36.1002Z" fill="white"/>
<path d="M78.75 0C84.3858 0 89.7909 2.23883 93.776 6.22398C97.7612 10.2091 100 15.6141 100 21.25V26.25C100 66.98 66.98 100 26.25 100H21.25C15.6141 100 10.2091 97.7612 6.22398 93.776C2.23883 89.7909 0 84.3858 0 78.75V73.75C0 33.02 33.02 0 73.75 0H78.75ZM92.5 21.25C92.5 17.6033 91.0513 14.1059 88.4727 11.5273C85.8941 8.94866 82.3967 7.5 78.75 7.5H73.75C71.735 7.5 69.74 7.59 67.77 7.765L92.235 32.23C92.41 30.26 92.5 28.265 92.5 26.25V21.25ZM90.765 41.37L58.63 9.235C46.5343 12.0798 35.4804 18.2641 26.7273 27.0835C17.9741 35.903 11.8735 47.0031 9.12 59.12L40.88 90.88C52.9971 88.1271 64.0976 82.0266 72.9171 73.2734C81.7366 64.5201 87.9207 53.466 90.765 41.37ZM7.715 68.325C7.575 70.115 7.5 71.925 7.5 73.75V78.75C7.5 82.3967 8.94866 85.8941 11.5273 88.4727C14.1059 91.0513 17.6033 92.5 21.25 92.5H26.25C28.075 92.5 29.885 92.425 31.675 92.28L7.72 68.325H7.715Z" fill="white"/>
</svg>
